<svg width="534" height="66" viewBox="0 0 534 66" fill="none" xmlns="http://www.w3.org/2000/svg">
<path d="M21.24 52.56C29.15 52.56 35.38 49.06 38.11 43.04L29.64 38.42C27.61 42.06 24.6 43.6 21.17 43.6C15.64 43.6 11.3 39.75 11.3 33.17C11.3 26.59 15.64 22.74 21.17 22.74C24.6 22.74 27.61 24.35 29.64 27.92L38.11 23.37C35.38 17.21 29.15 13.78 21.24 13.78C8.99 13.78 0.24 21.83 0.24 33.17C0.24 44.51 8.99 52.56 21.24 52.56ZM58.6889 52.56C70.6589 52.56 79.3389 44.51 79.3389 33.17C79.3389 21.83 70.6589 13.78 58.6889 13.78C46.7189 13.78 37.9689 21.83 37.9689 33.17C37.9689 44.51 46.7189 52.56 58.6889 52.56ZM58.6889 43.6C53.2289 43.6 49.0289 39.68 49.0289 33.17C49.0289 26.66 53.2289 22.74 58.6889 22.74C64.1489 22.74 68.2789 26.66 68.2789 33.17C68.2789 39.68 64.1489 43.6 58.6889 43.6ZM106.378 13.78C101.268 13.78 96.858 15.53 93.918 18.75V14.34H83.488V52H94.408V33.38C94.408 26.45 98.188 23.23 103.438 23.23C108.268 23.23 111.068 26.03 111.068 32.12V52H121.988V30.44C121.988 18.96 115.268 13.78 106.378 13.78ZM141.406 52.56C152.676 52.56 159.186 47.59 159.186 40.59C159.186 25.75 136.436 31.98 136.436 25.54C136.436 23.58 138.536 22.04 143.436 22.04C146.866 22.04 150.576 22.74 154.286 24.84L157.926 17.07C154.356 14.97 148.616 13.78 143.436 13.78C132.446 13.78 126.006 18.82 126.006 25.96C126.006 41.01 148.756 34.71 148.756 40.87C148.756 42.97 146.866 44.3 141.826 44.3C137.206 44.3 132.096 42.83 128.736 40.66L125.096 48.5C128.596 50.81 135.036 52.56 141.406 52.56ZM189.794 14.34V32.96C189.794 39.89 186.154 43.11 181.114 43.11C176.284 43.11 173.484 40.31 173.484 34.01V14.34H162.564V35.62C162.564 47.24 169.214 52.56 178.664 52.56C183.284 52.56 187.484 50.81 190.354 47.52V52H200.714V14.34H189.794ZM255.911 13.78C250.241 13.78 245.341 16.09 242.331 19.94C239.671 15.81 235.191 13.78 229.941 13.78C225.111 13.78 220.911 15.46 218.111 18.68V14.34H207.681V52H218.601V33.1C218.601 26.38 222.031 23.23 226.861 23.23C231.411 23.23 234.001 26.03 234.001 32.12V52H244.921V33.1C244.921 26.38 248.351 23.23 253.251 23.23C257.661 23.23 260.391 26.03 260.391 32.12V52H271.311V30.44C271.311 18.96 264.871 13.78 255.911 13.78ZM315.249 33.31C315.249 21.2 306.709 13.78 295.649 13.78C284.169 13.78 275.559 21.9 275.559 33.17C275.559 44.37 284.029 52.56 297.049 52.56C303.839 52.56 309.089 50.46 312.589 46.47L306.779 40.17C304.189 42.62 301.319 43.81 297.329 43.81C291.589 43.81 287.599 40.94 286.549 36.25H315.039C315.109 35.34 315.249 34.15 315.249 33.31ZM295.719 22.04C300.619 22.04 304.189 25.12 304.959 29.88H286.409C287.179 25.05 290.749 22.04 295.719 22.04Z" fill="#2F323A"/>
<path d="M355.699 52L341.139 32.75L355.139 14.34H343.519L335.329 25.33L327.349 14.34H315.099L329.099 33.03L314.609 52H326.509L335.049 40.45L343.309 52H355.699ZM372.356 13.78C366.336 13.78 360.246 15.39 356.116 18.33L360.036 25.96C362.766 23.79 366.896 22.46 370.886 22.46C376.766 22.46 379.566 25.19 379.566 29.88H370.886C359.406 29.88 354.716 34.5 354.716 41.15C354.716 47.66 359.966 52.56 368.786 52.56C374.316 52.56 378.236 50.74 380.266 47.31V52H390.486V30.51C390.486 19.1 383.836 13.78 372.356 13.78ZM371.516 45.21C367.666 45.21 365.356 43.39 365.356 40.66C365.356 38.14 366.966 36.25 372.076 36.25H379.566V40.1C378.306 43.53 375.156 45.21 371.516 45.21ZM397.219 52H408.139V0.059997H397.219V52ZM430.314 13.78C424.294 13.78 418.204 15.39 414.074 18.33L417.994 25.96C420.724 23.79 424.854 22.46 428.844 22.46C434.724 22.46 437.524 25.19 437.524 29.88H428.844C417.364 29.88 412.674 34.5 412.674 41.15C412.674 47.66 417.924 52.56 426.744 52.56C432.274 52.56 436.194 50.74 438.224 47.31V52H448.444V30.51C448.444 19.1 441.794 13.78 430.314 13.78ZM429.474 45.21C425.624 45.21 423.314 43.39 423.314 40.66C423.314 38.14 424.924 36.25 430.034 36.25H437.524V40.1C436.264 43.53 433.114 45.21 429.474 45.21ZM477.437 13.78C472.397 13.78 468.337 15.39 465.607 18.68V14.34H455.177V65.58H466.097V48.01C468.897 51.09 472.747 52.56 477.437 52.56C488.007 52.56 496.197 45 496.197 33.17C496.197 21.34 488.007 13.78 477.437 13.78ZM475.547 43.6C470.087 43.6 465.957 39.68 465.957 33.17C465.957 26.66 470.087 22.74 475.547 22.74C481.007 22.74 485.137 26.66 485.137 33.17C485.137 39.68 481.007 43.6 475.547 43.6ZM514.932 13.78C508.912 13.78 502.822 15.39 498.692 18.33L502.612 25.96C505.342 23.79 509.472 22.46 513.462 22.46C519.342 22.46 522.142 25.19 522.142 29.88H513.462C501.982 29.88 497.292 34.5 497.292 41.15C497.292 47.66 502.542 52.56 511.362 52.56C516.892 52.56 520.812 50.74 522.842 47.31V52H533.062V30.51C533.062 19.1 526.412 13.78 514.932 13.78ZM514.092 45.21C510.242 45.21 507.932 43.39 507.932 40.66C507.932 38.14 509.542 36.25 514.652 36.25H522.142V40.1C520.882 43.53 517.732 45.21 514.092 45.21Z" fill="#C05746"/>
</svg>
